<svg width="0" height="0" class="hidden"><symbol id="archive" xmlns="http://www.w3.org/2000/svg" xmlns:xlink="http://www.w3.org/1999/xlink" xml:space="preserve" viewBox="0 0 60 60"><path d="M60 8.311c0-.199-.052-.382-.131-.551a1.113 1.113 0 0 0-.254-.579L53.46 0H6.54L.384 7.182a1.094 1.094 0 0 0-.253.578A1.291 1.291 0 0 0 0 8.311V19h3v41h54V19h3V8.311zM7.46 2h45.08l4.286 5H3.174L7.46 2zM55 58H5V19h50v39zm3-41H2V9h56v8z"/><path d="M42 23H18v10h24V23zm-2 8H20v-6h20v6zM45 38H15v14h30V38zm-2 12H17V40h26v10z"/><path d="M22 48h5a1 1 0 1 0 0-2h-5a1 1 0 1 0 0 2zM27 44h11a1 1 0 1 0 0-2H27a1 1 0 1 0 0 2zM22 44c.26 0 .52-.11.71-.29.18-.19.29-.45.29-.71 0-.261-.11-.521-.29-.71-.38-.37-1.04-.37-1.42 0-.18.189-.29.449-.29.71 0 .27.11.52.29.71.19.18.44.29.71.29zM31.29 46.29c-.18.189-.29.449-.29.71 0 .26.11.52.29.71.19.18.45.29.71.29.26 0 .52-.11.71-.29.18-.19.29-.45.29-.71 0-.261-.11-.521-.29-.71-.37-.37-1.05-.37-1.42 0zM38 46h-1a1 1 0 1 0 0 2h1a1 1 0 1 0 0-2z"/></symbol><symbol id="trash" xmlns="http://www.w3.org/2000/svg" xmlns:xlink="http://www.w3.org/1999/xlink" xml:space="preserve" viewBox="0 0 512.023 512.023"><path d="M434.2 101.4h-13.762l5.229-30.72c0-1.707 0-4.267-1.707-5.973-1.707-1.707-3.413-3.413-5.973-3.413l-64.628-10.44-4.492-44.174c-.854-4.267-5.12-7.68-9.387-7.68L167.96 13.507c-2.56.853-4.267 1.707-5.973 3.413-.853 1.707-1.707 3.413-1.707 5.973l4.305 39.463L82.627 78.36c-4.267.853-7.68 5.12-6.827 9.387l2.438 13.653H75.8c-14.507 0-25.6 11.093-25.6 25.6v34.133c0 13.95 10.261 24.739 23.948 25.546l35.785 300.427c.854 13.654 11.947 23.894 25.6 23.894h238.933c12.8 0 24.747-10.24 25.6-23.04l35.788-301.281c13.686-.809 23.946-11.596 23.946-25.546V127c0-14.507-11.093-25.6-25.6-25.6zm-31.573 0h-96.398l6.798-40.107 93.867 15.36-4.267 24.747zM181.613 58.733 178.2 29.72l153.6-12.8 3.413 30.72-28.16-4.267c-4.267-.853-8.533 2.56-9.387 6.827l-9.035 51.2h-43.416l-8.135-44.373c0-1.707-1.707-3.413-3.413-5.12C231.96 50.2 229.4 50.2 226.84 50.2l-45.227 8.533zm-87.04 34.134 79.706-15.079c.33-.036.661-.098.995-.188l6.129-1.16 39.492-7.313 5.945 32.274H95.427l-.854-8.534zm279.894 401.066H135.533c-4.267 0-8.533-3.413-8.533-8.533l-.193-1.61-3.22-41.057h262.827L383 486.253c0 4.267-4.267 7.68-8.533 7.68zm15.783-68.266H119.832L91.16 186.733h327.68l-28.59 238.934zm52.483-264.534c0 5.12-3.413 8.533-8.533 8.533H75.8c-5.12 0-8.533-3.413-8.533-8.533V127c0-5.12 3.413-8.533 8.533-8.533h358.4c5.12 0 8.533 3.413 8.533 8.533v34.133z" transform="translate(1 1)"/><path d="M255 391.533c5.12 0 8.533-3.413 8.533-8.533V229.4c0-5.12-3.413-8.533-8.533-8.533-5.12 0-8.533 3.413-8.533 8.533V383c0 5.12 3.413 8.533 8.533 8.533zM167.96 383.853c.853 4.267 4.267 7.68 8.533 7.68 5.12-.853 8.533-5.12 8.533-9.387L171.373 229.4c-.853-4.267-4.267-8.533-9.387-7.68-4.267.853-7.68 4.267-7.68 9.387l13.654 152.746zM333.507 391.533c4.267 0 8.533-3.413 8.533-7.68l13.653-152.747c.853-5.12-2.56-9.387-7.68-9.387-5.12-.853-9.387 2.56-9.387 7.68l-13.653 152.747c0 5.121 3.414 8.534 8.534 9.387z" transform="translate(1 1)"/></symbol><symbol xmlns="http://www.w3.org/2000/svg" viewBox="0 0 24 24" id="close"><path d="m13.41 12 4.3-4.29a1 1 0 1 0-1.42-1.42L12 10.59l-4.29-4.3a1 1 0 0 0-1.42 1.42l4.3 4.29-4.3 4.29a1 1 0 0 0 0 1.42 1 1 0 0 0 1.42 0l4.29-4.3 4.29 4.3a1 1 0 0 0 1.42 0 1 1 0 0 0 0-1.42z"/></symbol></svg>