<svg version="1.1" id="Layer_1" xmlns="http://www.w3.org/2000/svg" x="0" y="0" viewBox="0 0 321.094 321.094" style="enable-background:new 0 0 321.094 321.094" xml:space="preserve"><path d="M277.54 19.907h-63.18V7.5a7.5 7.5 0 0 0-7.5-7.5h-92.625a7.5 7.5 0 0 0-7.5 7.5v12.407h-63.18a7.5 7.5 0 0 0-7.5 7.5v286.187a7.5 7.5 0 0 0 7.5 7.5h233.984a7.5 7.5 0 0 0 7.5-7.5V27.407a7.498 7.498 0 0 0-7.499-7.5zM121.735 15h77.625v24h-77.625V15zm148.306 291.094H51.056V34.907h55.68V46.5a7.5 7.5 0 0 0 7.5 7.5h92.625a7.5 7.5 0 0 0 7.5-7.5V34.907h55.68v271.187z"/><path d="M109.397 86.5h-35a7.5 7.5 0 0 0-7.5 7.5v35a7.5 7.5 0 0 0 7.5 7.5h35a7.5 7.5 0 0 0 7.5-7.5V94a7.5 7.5 0 0 0-7.5-7.5zm-7.5 35h-20v-20h20v20zM126.897 94v35a7.5 7.5 0 0 0 7.5 7.5h112.301a7.5 7.5 0 0 0 7.5-7.5V94a7.5 7.5 0 0 0-7.5-7.5H134.397a7.5 7.5 0 0 0-7.5 7.5zm15 7.5h97.301v20h-97.301v-20zM109.397 155.5h-35a7.5 7.5 0 0 0-7.5 7.5v35a7.5 7.5 0 0 0 7.5 7.5h35a7.5 7.5 0 0 0 7.5-7.5v-35a7.5 7.5 0 0 0-7.5-7.5zm-7.5 35h-20v-20h20v20zM246.698 155.5H134.397a7.5 7.5 0 0 0-7.5 7.5v35a7.5 7.5 0 0 0 7.5 7.5h112.301a7.5 7.5 0 0 0 7.5-7.5v-35a7.5 7.5 0 0 0-7.5-7.5zm-7.5 35h-97.301v-20h97.301v20zM109.397 224.5h-35a7.5 7.5 0 0 0-7.5 7.5v35a7.5 7.5 0 0 0 7.5 7.5h35a7.5 7.5 0 0 0 7.5-7.5v-35a7.5 7.5 0 0 0-7.5-7.5zm-7.5 35h-20v-20h20v20zM246.698 224.5H134.397a7.5 7.5 0 0 0-7.5 7.5v35a7.5 7.5 0 0 0 7.5 7.5h112.301a7.5 7.5 0 0 0 7.5-7.5v-35a7.5 7.5 0 0 0-7.5-7.5zm-7.5 35h-97.301v-20h97.301v20z"/></svg>