<svg version="1.1" id="Layer_1" xmlns="http://www.w3.org/2000/svg" x="0" y="0" viewBox="0 0 512.023 512.023" style="enable-background:new 0 0 512.023 512.023" xml:space="preserve"><path d="M434.2 101.4h-13.762l5.229-30.72c0-1.707 0-4.267-1.707-5.973-1.707-1.707-3.413-3.413-5.973-3.413l-64.628-10.44-4.492-44.174c-.854-4.267-5.12-7.68-9.387-7.68L167.96 13.507c-2.56.853-4.267 1.707-5.973 3.413-.853 1.707-1.707 3.413-1.707 5.973l4.305 39.463L82.627 78.36c-4.267.853-7.68 5.12-6.827 9.387l2.438 13.653H75.8c-14.507 0-25.6 11.093-25.6 25.6v34.133c0 13.95 10.261 24.739 23.948 25.546l35.785 300.427c.854 13.654 11.947 23.894 25.6 23.894h238.933c12.8 0 24.747-10.24 25.6-23.04l35.788-301.281c13.686-.809 23.946-11.596 23.946-25.546V127c0-14.507-11.093-25.6-25.6-25.6zm-31.573 0h-96.398l6.798-40.107 93.867 15.36-4.267 24.747zM181.613 58.733 178.2 29.72l153.6-12.8 3.413 30.72-28.16-4.267c-4.267-.853-8.533 2.56-9.387 6.827l-9.035 51.2h-43.416l-8.135-44.373c0-1.707-1.707-3.413-3.413-5.12C231.96 50.2 229.4 50.2 226.84 50.2l-45.227 8.533zm-87.04 34.134 79.706-15.079c.33-.036.661-.098.995-.188l6.129-1.16 39.492-7.313 5.945 32.274H95.427l-.854-8.534zm279.894 401.066H135.533c-4.267 0-8.533-3.413-8.533-8.533l-.193-1.61-3.22-41.057h262.827L383 486.253c0 4.267-4.267 7.68-8.533 7.68zm15.783-68.266H119.832L91.16 186.733h327.68l-28.59 238.934zm52.483-264.534c0 5.12-3.413 8.533-8.533 8.533H75.8c-5.12 0-8.533-3.413-8.533-8.533V127c0-5.12 3.413-8.533 8.533-8.533h358.4c5.12 0 8.533 3.413 8.533 8.533v34.133z" transform="translate(1 1)"/><path d="M255 391.533c5.12 0 8.533-3.413 8.533-8.533V229.4c0-5.12-3.413-8.533-8.533-8.533-5.12 0-8.533 3.413-8.533 8.533V383c0 5.12 3.413 8.533 8.533 8.533zM167.96 383.853c.853 4.267 4.267 7.68 8.533 7.68 5.12-.853 8.533-5.12 8.533-9.387L171.373 229.4c-.853-4.267-4.267-8.533-9.387-7.68-4.267.853-7.68 4.267-7.68 9.387l13.654 152.746zM333.507 391.533c4.267 0 8.533-3.413 8.533-7.68l13.653-152.747c.853-5.12-2.56-9.387-7.68-9.387-5.12-.853-9.387 2.56-9.387 7.68l-13.653 152.747c0 5.121 3.414 8.534 8.534 9.387z" transform="translate(1 1)"/></svg>