<svg width="0" height="0" class="hidden">
  <symbol version="1.1" id="archive" xmlns="http://www.w3.org/2000/svg" xmlns:xlink="http://www.w3.org/1999/xlink" x="0px" y="0px" xml:space="preserve" viewBox="0 0 60 60">
    <g>
      <path d="M60,8.311c0-0.199-0.052-0.382-0.131-0.551c-0.027-0.209-0.112-0.412-0.254-0.579L53.46,0H6.54L0.384,7.182
		C0.242,7.348,0.157,7.55,0.131,7.76C0.052,7.929,0,8.112,0,8.311V19h3v41h54V19h3V8.311z M7.46,2h45.08l4.286,5H3.174L7.46,2z
		 M55,58H5V19h50V58z M58,17h-1H3H2V9h56V17z"></path>
      <path d="M42,23H18v10h24V23z M40,31H20v-6h20V31z"></path>
      <path d="M45,38H15v14h30V38z M43,50H17V40h26V50z"></path>
      <path d="M22,48h5c0.552,0,1-0.447,1-1s-0.448-1-1-1h-5c-0.552,0-1,0.447-1,1S21.448,48,22,48z"></path>
      <path d="M27,44h11c0.552,0,1-0.447,1-1s-0.448-1-1-1H27c-0.552,0-1,0.447-1,1S26.448,44,27,44z"></path>
      <path d="M22,44c0.26,0,0.52-0.11,0.71-0.29C22.89,43.52,23,43.26,23,43c0-0.261-0.11-0.521-0.29-0.71c-0.38-0.37-1.04-0.37-1.42,0
		C21.11,42.479,21,42.739,21,43c0,0.27,0.11,0.52,0.29,0.71C21.48,43.89,21.73,44,22,44z"></path>
      <path d="M31.29,46.29C31.11,46.479,31,46.739,31,47c0,0.26,0.11,0.52,0.29,0.71C31.48,47.89,31.74,48,32,48
		c0.26,0,0.52-0.11,0.71-0.29C32.89,47.52,33,47.26,33,47c0-0.261-0.11-0.521-0.29-0.71C32.34,45.92,31.66,45.92,31.29,46.29z"></path>
      <path d="M38,46h-1c-0.552,0-1,0.447-1,1s0.448,1,1,1h1c0.552,0,1-0.447,1-1S38.552,46,38,46z"></path>
    </g>
    <g></g>
    <g></g>
    <g></g>
    <g></g>
    <g></g>
    <g></g>
    <g></g>
    <g></g>
    <g></g>
    <g></g>
    <g></g>
    <g></g>
    <g></g>
    <g></g>
    <g></g>
  </symbol>
 
  <symbol version="1.1" id="trash" xmlns="http://www.w3.org/2000/svg" xmlns:xlink="http://www.w3.org/1999/xlink" x="0px" y="0px" xml:space="preserve" viewBox="0 0 512.023 512.023">
    <g transform="translate(1 1)">
      <g>
        <g>
          <path d="M434.2,101.4h-13.762l5.229-30.72c0-1.707,0-4.267-1.707-5.973c-1.707-1.707-3.413-3.413-5.973-3.413l-64.628-10.44
				L348.867,6.68C348.013,2.413,343.747-1,339.48-1L167.96,13.507c-2.56,0.853-4.267,1.707-5.973,3.413
				c-0.853,1.707-1.707,3.413-1.707,5.973l4.305,39.463L82.627,78.36c-4.267,0.853-7.68,5.12-6.827,9.387l2.438,13.653H75.8
				c-14.507,0-25.6,11.093-25.6,25.6v34.133c0,13.95,10.261,24.739,23.948,25.546l35.785,300.427
				C110.787,500.76,121.88,511,135.533,511h238.933c12.8,0,24.747-10.24,25.6-23.04l35.788-301.281
				c13.686-0.809,23.946-11.596,23.946-25.546V127C459.8,112.493,448.707,101.4,434.2,101.4z M402.627,101.4h-96.398l6.798-40.107
				l93.867,15.36L402.627,101.4z M181.613,58.733L178.2,29.72l153.6-12.8l3.413,30.72l-28.16-4.267
				c-4.267-0.853-8.533,2.56-9.387,6.827l-9.035,51.2h-43.416l-8.135-44.373c0-1.707-1.707-3.413-3.413-5.12
				C231.96,50.2,229.4,50.2,226.84,50.2L181.613,58.733z M94.573,92.867l79.706-15.079c0.33-0.036,0.661-0.098,0.995-0.188
				l6.129-1.16l39.492-7.313l5.945,32.274H95.427L94.573,92.867z M374.467,493.933H135.533c-4.267,0-8.533-3.413-8.533-8.533
				l-0.193-1.61l-3.22-41.057h262.827L383,486.253C383,490.52,378.733,493.933,374.467,493.933z M390.25,425.667H119.832
				L91.16,186.733h327.68L390.25,425.667z M442.733,161.133c0,5.12-3.413,8.533-8.533,8.533h-5.12H81.773H75.8
				c-5.12,0-8.533-3.413-8.533-8.533V127c0-5.12,3.413-8.533,8.533-8.533h12.8h149.333h58.027h114.347H434.2
				c5.12,0,8.533,3.413,8.533,8.533V161.133z"></path>
          <path d="M255,391.533c5.12,0,8.533-3.413,8.533-8.533V229.4c0-5.12-3.413-8.533-8.533-8.533c-5.12,0-8.533,3.413-8.533,8.533V383
				C246.467,388.12,249.88,391.533,255,391.533z"></path>
          <path d="M167.96,383.853c0.853,4.267,4.267,7.68,8.533,7.68c5.12-0.853,8.533-5.12,8.533-9.387L171.373,229.4
				c-0.853-4.267-4.267-8.533-9.387-7.68c-4.267,0.853-7.68,4.267-7.68,9.387L167.96,383.853z"></path>
          <path d="M333.507,391.533c4.267,0,8.533-3.413,8.533-7.68l13.653-152.747c0.853-5.12-2.56-9.387-7.68-9.387
				c-5.12-0.853-9.387,2.56-9.387,7.68l-13.653,152.747C324.973,387.267,328.387,390.68,333.507,391.533z"></path>
        </g>
      </g>
    </g>
    <g></g>
    <g></g>
    <g></g>
    <g></g>
    <g></g>
    <g></g>
    <g></g>
    <g></g>
    <g></g>
    <g></g>
    <g></g>
    <g></g>
    <g></g>
    <g></g>
    <g></g>
  </symbol>
  <symbol xmlns="http://www.w3.org/2000/svg" viewBox="0 0 24 24" id="close">
    <g>
      <g>
        <rect width="24" height="24" transform="rotate(180 12 12)" opacity="0"></rect>
        <path d="M13.41 12l4.3-4.29a1 1 0 1 0-1.42-1.42L12 10.59l-4.29-4.3a1 1 0 0 0-1.42 1.42l4.3 4.29-4.3 4.29a1 1 0 0 0 0 1.42 1 1 0 0 0 1.42 0l4.29-4.3 4.29 4.3a1 1 0 0 0 1.42 0 1 1 0 0 0 0-1.42z"></path>
      </g>
    </g>
  </symbol>
</svg>